<?xml version="1.0" encoding="UTF-8" standalone="no"?>
<!DOCTYPE svg PUBLIC "-//W3C//DTD SVG 1.1//EN" "http://www.w3.org/Graphics/SVG/1.1/DTD/svg11.dtd">
<svg width="360" height="360" viewBox="0 0 360 360" version="1.1" xmlns="http://www.w3.org/2000/svg">
<rect x="0" y="0" width="360" height="360" style="fill:white;"/>
<circle cx="180.0995" cy="180.00998" r="61.650707" fill="rgb(172,181,212)" />
<circle cx="180.29552" cy="180.04971" r="28.481573" fill="rgb(37,21,232)" />
<circle cx="180.58212" cy="180.13837" r="27.577164" fill="rgb(54,99,30)" />
<circle cx="180.95055" cy="180.29413" r="26.290873" fill="rgb(162,233,64)" />
<circle cx="181.38934" cy="180.53384" r="26.0" fill="rgb(26,191,37)" />
<circle cx="181.88455" cy="180.87263" r="20.677765" fill="rgb(66,77,252)" />
<circle cx="182.41994" cy="181.3236" r="19.928623" fill="rgb(183,207,16)" />
<circle cx="182.9773" cy="181.89748" r="19.456617" fill="rgb(87,44,40)" />
<circle cx="183.53674" cy="182.60248" r="19.32589" fill="rgb(26,179,209)" />
<circle cx="184.07704" cy="183.44395" r="18.838789" fill="rgb(63,138,49)" />
<circle cx="184.576" cy="184.42429" r="18.060177" fill="rgb(127,191,250)" />
<circle cx="185.01083" cy="185.54274" r="16.443844" fill="rgb(100,194,172)" />
<circle cx="185.35858" cy="186.79536" r="16.340746" fill="rgb(248,231,210)" />
<circle cx="185.59654" cy="188.17499" r="15.216109" fill="rgb(177,74,152)" />
<circle cx="185.70265" cy="189.67123" r="14.7651615" fill="rgb(82,158,202)" />
<circle cx="185.65593" cy="191.27055" r="14.181326" fill="rgb(93,17,154)" />
<circle cx="185.43689" cy="192.95639" r="13.69635" fill="rgb(134,189,224)" />
<circle cx="185.02792" cy="194.70932" r="13.447304" fill="rgb(72,182,138)" />
<circle cx="184.41367" cy="196.5073" r="13.064837" fill="rgb(25,23,5)" />
<circle cx="183.58138" cy="198.32588" r="12.469162" fill="rgb(177,90,55)" />
<circle cx="182.5212" cy="200.13863" r="12.469162" fill="rgb(35,65,36)" />
<circle cx="181.22649" cy="201.91731" r="11.843563" fill="rgb(196,53,183)" />
<circle cx="179.69405" cy="203.63243" r="11.25833" fill="rgb(254,8,137)" />
<circle cx="177.9243" cy="205.25354" r="10.31843" fill="rgb(240,204,229)" />
<circle cx="175.92145" cy="206.74973" r="10.23621" fill="rgb(145,197,231)" />
<circle cx="173.69354" cy="208.09003" r="10.0697565" fill="rgb(19,83,94)" />
<circle cx="171.25255" cy="209.24396" r="10.0697565" fill="rgb(33,72,5)" />
<circle cx="168.61433" cy="210.18193" r="9.55301" fill="rgb(244,175,204)" />
<circle cx="165.79855" cy="210.87575" r="9.099999" fill="rgb(123,43,193)" />
<circle cx="162.82858" cy="211.2991" r="8.912351" fill="rgb(255,73,149)" />
<circle cx="159.73126" cy="211.42801" r="8.52467" fill="rgb(241,181,191)" />
<circle cx="156.53671" cy="211.24121" r="8.221922" fill="rgb(16,83,212)" />
<circle cx="153.27803" cy="210.72066" r="8.118497" fill="rgb(81,202,34)" />
<circle cx="149.99092" cy="209.85182" r="7.7999997" fill="rgb(158,39,19)" />
<circle cx="146.71332" cy="208.62408" r="7.6909037" fill="rgb(70,169,81)" />
<circle cx="143.48499" cy="207.03102" r="7.580237" fill="rgb(182,102,51)" />
<circle cx="140.34702" cy="205.07063" r="7.580237" fill="rgb(220,226,61)" />
<circle cx="137.34134" cy="202.74557" r="7.580237" fill="rgb(122,57,40)" />
<circle cx="134.5102" cy="200.0633" r="7.35391" fill="rgb(26,122,142)" />
<circle cx="131.89561" cy="197.03609" r="7.2380934" fill="rgb(215,10,144)" />
<circle cx="129.53883" cy="193.68115" r="7.2380934" fill="rgb(139,76,84)" />
<circle cx="127.47974" cy="190.02054" r="7.1203933" fill="rgb(21,157,162)" />
<circle cx="125.756294" cy="186.08102" r="7.000714" fill="rgb(220,39,158)" />
<circle cx="124.40402" cy="181.89398" r="7.000714" fill="rgb(15,225,226)" />
<circle cx="123.45544" cy="177.4951" r="6.878953" fill="rgb(230,157,169)" />
<circle cx="122.93953" cy="172.92413" r="6.7549977" fill="rgb(94,23,169)" />
<circle cx="122.881294" cy="168.2245" r="6.5" fill="rgb(216,47,143)" />
<circle cx="123.30128" cy="163.44292" r="6.234581" fill="rgb(7,150,137)" />
<circle cx="124.21518" cy="158.6289" r="6.234581" fill="rgb(252,197,138)" />
<circle cx="125.63348" cy="153.83429" r="6.234581" fill="rgb(140,135,2)" />
<circle cx="127.56115" cy="149.11263" r="6.234581" fill="rgb(211,66,168)" />
<circle cx="129.99742" cy="144.51866" r="6.234581" fill="rgb(145,32,98)" />
<circle cx="132.9356" cy="140.10764" r="6.0975404" fill="rgb(12,4,22)" />
<circle cx="136.36292" cy="135.9347" r="5.9573483" fill="rgb(176,19,55)" />
<circle cx="140.26059" cy="132.05421" r="5.9573483" fill="rgb(108,36,153)" />
<circle cx="144.60374" cy="128.5191" r="5.9573483" fill="rgb(224,215,181)" />
<circle cx="149.3616" cy="125.38018" r="5.9573483" fill="rgb(215,59,32)" />
<circle cx="154.4976" cy="122.68547" r="5.8137765" fill="rgb(205,177,68)" />
<circle cx="159.96971" cy="120.47958" r="5.8137765" fill="rgb(18,157,41)" />
<circle cx="165.73073" cy="118.80307" r="5.5154324" fill="rgb(84,181,122)" />
<circle cx="171.72865" cy="117.69186" r="5.360037" fill="rgb(10,83,1)" />
<circle cx="177.90721" cy="117.17668" r="5.360037" fill="rgb(237,96,241)" />
<circle cx="184.20631" cy="117.282585" r="5.2" fill="rgb(174,249,116)" />
<circle cx="190.5627" cy="118.02847" r="5.2" fill="rgb(54,194,237)" />
<circle cx="196.91052" cy="119.42673" r="5.2" fill="rgb(225,20,203)" />
<circle cx="203.18207" cy="121.48287" r="5.2" fill="rgb(100,94,37)" />
<circle cx="209.30844" cy="124.19534" r="5.0348783" fill="rgb(252,1,130)" />
<circle cx="215.22035" cy="127.55529" r="5.0348783" fill="rgb(84,13,186)" />
<circle cx="220.84886" cy="131.5465" r="4.8641543" fill="rgb(120,66,173)" />
<circle cx="226.12619" cy="136.14537" r="4.6872163" fill="rgb(211,111,51)" />
<circle cx="230.9865" cy="141.32103" r="4.6872163" fill="rgb(106,151,194)" />
<circle cx="235.36665" cy="147.03542" r="4.6872163" fill="rgb(132,160,87)" />
<circle cx="239.20705" cy="153.24358" r="4.6872163" fill="rgb(170,144,59)" />
<circle cx="242.45233" cy="159.894" r="4.6872163" fill="rgb(244,74,102)" />
<circle cx="245.05212" cy="166.92899" r="4.5033317" fill="rgb(102,41,6)" />
<circle cx="246.96173" cy="174.28516" r="4.5033317" fill="rgb(215,12,188)" />
<circle cx="248.14275" cy="181.89404" r="4.5033317" fill="rgb(12,52,43)" />
<circle cx="248.56364" cy="189.68268" r="4.5033317" fill="rgb(165,180,92)" />
<circle cx="248.20027" cy="197.57431" r="4.5033317" fill="rgb(54,2,154)" />
<circle cx="247.03632" cy="205.48918" r="4.311612" fill="rgb(30,203,26)" />
<circle cx="245.06364" cy="213.34529" r="4.311612" fill="rgb(148,61,191)" />
<circle cx="242.28261" cy="221.0593" r="4.311612" fill="rgb(5,59,10)" />
<circle cx="238.70221" cy="228.54733" r="4.311612" fill="rgb(131,169,41)" />
<circle cx="234.34021" cy="235.72598" r="4.311612" fill="rgb(80,238,169)" />
<circle cx="229.22314" cy="242.51314" r="4.311612" fill="rgb(195,239,142)" />
<circle cx="223.38617" cy="248.82896" r="4.311612" fill="rgb(119,67,13)" />
<circle cx="216.87297" cy="254.59682" r="4.110961" fill="rgb(171,134,244)" />
<circle cx="209.73537" cy="259.7441" r="4.110961" fill="rgb(33,170,199)" />
<circle cx="202.033" cy="264.20322" r="3.8999999" fill="rgb(4,191,35)" />
<circle cx="193.83284" cy="267.9123" r="3.8999999" fill="rgb(137,239,216)" />
<circle cx="185.20857" cy="270.8161" r="3.8999999" fill="rgb(123,233,188)" />
<circle cx="176.24002" cy="272.8667" r="3.676955" fill="rgb(156,216,198)" />
<circle cx="167.01233" cy="274.02414" r="3.676955" fill="rgb(46,56,33)" />
<circle cx="157.61522" cy="274.25702" r="3.676955" fill="rgb(244,9,228)" />
<circle cx="148.14209" cy="273.5431" r="3.676955" fill="rgb(133,91,1)" />
<circle cx="138.68909" cy="271.86954" r="3.676955" fill="rgb(221,99,197)" />
<circle cx="129.35416" cy="269.23346" r="3.676955" fill="rgb(16,134,79)" />
<circle cx="120.235985" cy="265.64197" r="3.4394765" fill="rgb(243,160,217)" />
<circle cx="111.433" cy="261.11234" r="3.4394765" fill="rgb(90,161,180)" />
<circle cx="103.04229" cy="255.6721" r="3.4394765" fill="rgb(73,219,16)" />
<circle cx="95.15856" cy="249.35887" r="3.4394765" fill="rgb(141,119,235)" />
<circle cx="87.87307" cy="242.22012" r="3.4394765" fill="rgb(19,108,70)" />
<circle cx="81.27258" cy="234.31294" r="3.1843367" fill="rgb(179,185,59)" />
<circle cx="75.43838" cy="225.70352" r="3.1843367" fill="rgb(109,71,146)" />
<circle cx="70.445274" cy="216.46669" r="3.1843367" fill="rgb(236,242,140)" />
<circle cx="66.36073" cy="206.68524" r="3.1843367" fill="rgb(56,24,202)" />
<circle cx="63.243984" cy="196.44923" r="2.9068882" fill="rgb(162,58,24)" />
<circle cx="61.14527" cy="185.8551" r="2.9068882" fill="rgb(150,41,28)" />
<circle cx="60.105156" cy="175.00484" r="2.9068882" fill="rgb(237,88,73)" />
<circle cx="60.1539" cy="164.00494" r="2.9068882" fill="rgb(227,197,230)" />
<circle cx="61.31099" cy="152.96541" r="2.9068882" fill="rgb(105,26,150)" />
<circle cx="63.584717" cy="141.99863" r="2.9068882" fill="rgb(30,49,32)" />
<circle cx="66.97192" cy="131.21823" r="2.9068882" fill="rgb(80,46,95)" />
<circle cx="71.457794" cy="120.737915" r="2.9068882" fill="rgb(130,110,109)" />
<circle cx="77.01588" cy="110.67025" r="2.6" fill="rgb(200,243,160)" />
<circle cx="83.608116" cy="101.12549" r="2.6" fill="rgb(183,123,141)" />
<circle cx="91.185074" cy="92.210335" r="2.6" fill="rgb(152,7,254)" />
<circle cx="99.68626" cy="84.02681" r="2.6" fill="rgb(142,82,140)" />
<circle cx="109.040565" cy="76.67106" r="2.6" fill="rgb(82,139,110)" />
<circle cx="119.166885" cy="70.23228" r="2.6" fill="rgb(150,53,8)" />
<circle cx="129.97475" cy="64.79165" r="2.2516658" fill="rgb(150,31,148)" />
<circle cx="141.36513" cy="60.421364" r="2.2516658" fill="rgb(194,200,192)" />
<circle cx="153.23138" cy="57.18374" r="2.2516658" fill="rgb(252,245,20)" />
<circle cx="165.4602" cy="55.13038" r="2.2516658" fill="rgb(35,164,161)" />
<circle cx="177.93271" cy="54.3015" r="1.8384775" fill="rgb(158,202,182)" />
<circle cx="190.52559" cy="54.7253" r="1.8384775" fill="rgb(21,130,74)" />
</svg>
